<svg width="40" height="41" viewBox="0 0 40 41" fill="none" xmlns="http://www.w3.org/2000/svg">
<rect width="40" height="40" transform="translate(0 0.265625)" fill="white"/>
<rect x="4" y="4.2793" width="32" height="31.9733" fill="url(#paint0_linear_488_4474)"/>
<path d="M11.4047 9.44369L4 16.6602V26.4835L8.29802 22.3492H9.39619L23.1869 36.1845L33.1519 36.2515L14.6311 17.5767C14.4499 17.394 14.3483 17.1471 14.3483 16.8898C14.3483 16.6271 14.4542 16.3755 14.642 16.192L18.1556 12.759C18.2703 12.6469 18.3996 12.5508 18.5401 12.4733L21.2446 10.9806C21.3508 10.922 21.4469 10.8467 21.5293 10.7577C21.6689 10.6067 21.7649 10.4206 21.807 10.2193L21.8273 10.122C21.856 9.98488 21.8652 9.84445 21.8547 9.70478L21.8334 9.42101C21.8218 9.26592 21.7733 9.11584 21.6919 8.98328C21.6113 8.85185 21.5007 8.74138 21.3691 8.66093L21.356 8.65289C21.1763 8.54303 20.9676 8.49024 20.7574 8.50149L12.5539 8.94017C12.1225 8.96324 11.7141 9.14217 11.4047 9.44369Z" fill="white"/>
<defs>
<linearGradient id="paint0_linear_488_4474" x1="4" y1="7.56212" x2="34.0027" y2="47.7963" gradientUnits="userSpaceOnUse">
<stop stop-color="#20D688"/>
<stop offset="0.955362" stop-color="#FAF94F"/>
</linearGradient>
</defs>
</svg>
