<?xml version="1.0" encoding="UTF-8"?>
<svg xmlns="http://www.w3.org/2000/svg" width="13px" height="13px" viewBox="0 0 13 13" version="1.1">
<g id="surface1">
<rect x="0" y="0" width="13" height="13" style="fill:rgb(100%,100%,100%);fill-opacity:1;stroke:none;"/>
<path style=" stroke:none;fill-rule:nonzero;fill:rgb(43.529412%,43.529412%,43.529412%);fill-opacity:1;" d="M 1.300781 1.304688 L 11.699219 1.304688 L 11.699219 11.695312 L 1.300781 11.695312 Z M 1.300781 1.304688 "/>
<path style=" stroke:none;fill-rule:nonzero;fill:rgb(100%,100%,100%);fill-opacity:1;" d="M 3.707031 2.984375 L 1.300781 5.328125 L 1.300781 8.519531 L 2.695312 7.175781 L 3.054688 7.175781 L 7.535156 11.671875 L 10.773438 11.695312 L 4.753906 5.625 C 4.695312 5.566406 4.664062 5.488281 4.664062 5.402344 C 4.664062 5.316406 4.699219 5.234375 4.757812 5.175781 L 5.902344 4.058594 C 5.9375 4.023438 5.980469 3.992188 6.027344 3.96875 L 6.90625 3.480469 C 6.9375 3.464844 6.96875 3.4375 6.996094 3.410156 C 7.042969 3.359375 7.074219 3.300781 7.085938 3.234375 L 7.09375 3.203125 C 7.101562 3.160156 7.105469 3.113281 7.101562 3.066406 L 7.097656 2.976562 C 7.09375 2.925781 7.078125 2.875 7.050781 2.832031 C 7.023438 2.789062 6.988281 2.753906 6.945312 2.726562 L 6.941406 2.726562 C 6.882812 2.691406 6.816406 2.671875 6.746094 2.675781 L 4.078125 2.820312 C 3.941406 2.828125 3.808594 2.886719 3.707031 2.984375 Z M 3.707031 2.984375 "/>
</g>
</svg>
