<?xml version="1.0" encoding="UTF-8"?>
<svg xmlns="http://www.w3.org/2000/svg" width="13px" height="13px" viewBox="0 0 13 13" version="1.1">
<defs>
<linearGradient id="linear0" gradientUnits="userSpaceOnUse" x1="4" y1="7.56212" x2="34.0027" y2="47.7963" gradientTransform="matrix(0.325,0,0,0.317073,0,0)">
<stop offset="0" style="stop-color:rgb(12.54902%,83.921569%,53.333333%);stop-opacity:1;"/>
<stop offset="0.955362" style="stop-color:rgb(98.039216%,97.647059%,30.980392%);stop-opacity:1;"/>
</linearGradient>
</defs>
<g id="surface1">
<path style=" stroke:none;fill-rule:nonzero;fill:rgb(100%,100%,100%);fill-opacity:1;" d="M 0 0.0859375 L 13 0.0859375 L 13 12.765625 L 0 12.765625 Z M 0 0.0859375 "/>
<path style=" stroke:none;fill-rule:nonzero;fill:url(#linear0);" d="M 1.300781 1.355469 L 11.699219 1.355469 L 11.699219 11.496094 L 1.300781 11.496094 Z M 1.300781 1.355469 "/>
<path style=" stroke:none;fill-rule:nonzero;fill:rgb(100%,100%,100%);fill-opacity:1;" d="M 3.707031 2.996094 L 1.300781 5.28125 L 1.300781 8.398438 L 2.695312 7.085938 L 3.054688 7.085938 L 7.535156 11.472656 L 10.773438 11.496094 L 4.753906 5.574219 C 4.695312 5.515625 4.664062 5.4375 4.664062 5.355469 C 4.664062 5.273438 4.699219 5.191406 4.757812 5.132812 L 5.902344 4.046875 C 5.9375 4.011719 5.980469 3.980469 6.027344 3.953125 L 6.90625 3.480469 C 6.9375 3.464844 6.96875 3.4375 6.996094 3.410156 C 7.042969 3.363281 7.074219 3.304688 7.085938 3.242188 L 7.09375 3.210938 C 7.101562 3.164062 7.105469 3.121094 7.101562 3.078125 L 7.097656 2.988281 C 7.09375 2.9375 7.078125 2.890625 7.050781 2.847656 C 7.023438 2.808594 6.988281 2.773438 6.945312 2.746094 L 6.941406 2.742188 C 6.882812 2.707031 6.816406 2.691406 6.746094 2.695312 L 4.078125 2.835938 C 3.941406 2.84375 3.808594 2.898438 3.707031 2.996094 Z M 3.707031 2.996094 "/>
</g>
</svg>
