<?xml version="1.0" encoding="UTF-8"?>
<svg xmlns="http://www.w3.org/2000/svg" width="13px" height="13px" viewBox="0 0 13 13" version="1.1">
<g id="surface1">
<path style=" stroke:none;fill-rule:nonzero;fill:rgb(43.529412%,43.529412%,43.529412%);fill-opacity:1;" d="M 3.625 2.910156 L 1.277344 5.195312 L 1.277344 8.3125 L 2.640625 7 L 2.988281 7 L 7.363281 11.386719 L 10.519531 11.410156 L 4.648438 5.488281 C 4.589844 5.429688 4.558594 5.351562 4.558594 5.269531 C 4.558594 5.1875 4.59375 5.105469 4.652344 5.046875 L 5.765625 3.960938 C 5.800781 3.925781 5.84375 3.894531 5.886719 3.867188 L 6.746094 3.394531 C 6.78125 3.378906 6.808594 3.351562 6.835938 3.324219 C 6.878906 3.277344 6.910156 3.21875 6.925781 3.152344 L 6.929688 3.125 C 6.941406 3.078125 6.941406 3.035156 6.9375 2.992188 L 6.933594 2.902344 C 6.929688 2.851562 6.914062 2.804688 6.886719 2.761719 C 6.863281 2.71875 6.828125 2.6875 6.785156 2.660156 L 6.78125 2.65625 C 6.722656 2.621094 6.65625 2.605469 6.589844 2.609375 L 3.988281 2.75 C 3.851562 2.757812 3.722656 2.8125 3.625 2.910156 Z M 3.625 2.910156 "/>
</g>
</svg>
